HIERARCHY
ROOT Hips
{
	OFFSET 0.00000 0.00000 0.00000
	CHANNELS 6 Xposition Yposition Zposition Zrotation Yrotation Xrotation 
	JOINT LHipJoint
	{
		OFFSET 0 0 0
		CHANNELS 3 Zrotation Yrotation Xrotation
		JOINT LeftHip
		{
			OFFSET 1.36337 -1.57426 1.11036
			CHANNELS 3 Zrotation Yrotation Xrotation
			JOINT LeftKnee
			{
				OFFSET 2.38468 -6.55187 0.00000
				CHANNELS 3 Zrotation Yrotation Xrotation
				JOINT LeftAnkle
				{
					OFFSET 2.37166 -6.51609 0.00000
					CHANNELS 3 Zrotation Yrotation Xrotation
					JOINT LeftToe
					{
						OFFSET 0.29078 -0.79891 2.01393
						CHANNELS 3 Zrotation Yrotation Xrotation
						End Site
						{
							OFFSET 0.00000 -0.00000 1.07924
						}
					}
				}
			}
		}
	}
	JOINT RHipJoint
	{
		OFFSET 0 0 0
		CHANNELS 3 Zrotation Yrotation Xrotation
		JOINT RightHip
		{
			OFFSET -1.36349 -1.57426 1.11036
			CHANNELS 3 Zrotation Yrotation Xrotation
			JOINT RightKnee
			{
				OFFSET -2.29562 -6.30717 0.00000
				CHANNELS 3 Zrotation Yrotation Xrotation
				JOINT RightAnkle
				{
					OFFSET -2.40985 -6.62100 0.00000
					CHANNELS 3 Zrotation Yrotation Xrotation
					JOINT RightToe
					{
						OFFSET -0.23197 -0.63733 1.92232
						CHANNELS 3 Zrotation Yrotation Xrotation
						End Site
						{
							OFFSET -0.00000 -0.00000 1.01562
						}
					}
				}
			}
		}
	}
	JOINT lowerback
	{
		OFFSET 0 0 0
		CHANNELS 3 Zrotation Yrotation Xrotation
		JOINT Chest
		{
			OFFSET -0.08565 2.03602 -0.24562
			CHANNELS 3 Zrotation Yrotation Xrotation
			JOINT Chest2
			{
				OFFSET -0.00036 2.05693 0.00216
				CHANNELS 3 Zrotation Yrotation Xrotation
				JOINT lowerneck
				{
					OFFSET 0 0 0
					CHANNELS 3 Zrotation Yrotation Xrotation
					JOINT Neck
					{
						OFFSET -0.03664 1.69515 0.31789
						CHANNELS 3 Zrotation Yrotation Xrotation
						JOINT Head
						{
							OFFSET 0.00932 1.70181 -0.46013
							CHANNELS 3 Zrotation Yrotation Xrotation
							End Site
							{
								OFFSET 0.01243 1.77620 -0.19377
							}
						}
					}
				}
				JOINT LeftCollar
				{
					OFFSET 0 0 0
					CHANNELS 3 Zrotation Yrotation Xrotation
					JOINT LeftShoulder
					{
						OFFSET 3.74344 0.81315 -0.36647
CHANNELS 3 Zrotation Xrotation Yrotation
						JOINT LeftElbow
						{
OFFSET 0 -4.971850 -0.000000
CHANNELS 3 Zrotation Xrotation Yrotation
							JOINT LeftWrist
							{
OFFSET 0 -3.358110 0.000000
CHANNELS 3 Zrotation Xrotation Yrotation
								JOINT lhand
								{
									OFFSET 0 0 0
CHANNELS 3 Zrotation Xrotation Yrotation
									JOINT LFingers
									{
OFFSET 0 -0.622780 0.000000
CHANNELS 3 Zrotation Xrotation Yrotation
										End Site
										{
OFFSET 0 -0.502100 0.000000
										}
									}
								}
								JOINT LThumb
								{
OFFSET 0 0.000000 0.000000
CHANNELS 3 Zrotation Xrotation Yrotation
									End Site
									{
OFFSET 0 -0.509760 0.509760
									}
								}
							}
						}
					}
				}
				JOINT RightCollar
				{
					OFFSET 0 0 0
					CHANNELS 3 Zrotation Yrotation Xrotation
					JOINT RightShoulder
					{
						OFFSET -3.75385 0.50666 -0.06525
CHANNELS 3 Zrotation Xrotation Yrotation
						JOINT RightElbow
						{
OFFSET 0 -4.964930 -0.000000
CHANNELS 3 Zrotation Xrotation Yrotation
							JOINT RightWrist
							{
OFFSET 0 -3.349290 0.000000
CHANNELS 3 Zrotation Xrotation Yrotation
								JOINT rhand
								{
									OFFSET 0 0 0
CHANNELS 3 Zrotation Xrotation Yrotation
									JOINT RFingers
									{
OFFSET 0 -0.638040 0.000000
CHANNELS 3 Zrotation Xrotation Yrotation
										End Site
										{
OFFSET 0 -0.514410 0.000000
										}
									}
								}
								JOINT RThumb
								{
OFFSET 0 0.000000 0.000000
CHANNELS 3 Zrotation Xrotation Yrotation
									End Site
									{
OFFSET 0 -0.522260 0.522260
									}
								}
							}
						}
					}
				}
			}
		}
	}
}
MOTION
Frames: 12
Frame Time: 0.008333333333333333
-29.763900 16.322600 0.139200 174.267000 88.411600 179.039000 0.000000 0.000000 0.000000 -21.202300 -6.822900 -11.196600 3.674400 11.714100 34.728000 2.912800 7.182400 -35.343300 0.141000 2.419900 6.667500 0.000000 0.000000 0.000000 12.623400 7.569900 -8.470300 -2.520300 -9.874800 28.572200 -1.936000 -15.838600 -35.917200 -0.192400 -2.824800 7.791400 -3.732900 1.341700 -8.628800 0.737700 2.164200 2.082100 3.186600 0.889500 6.873200 8.878200 11.990600 -12.797400 -6.812200 18.317600 28.557500 -1.065000 8.559100 13.177400 -0.000000 0.000000 0.000000 0.551800 -8.404700 -13.223200 10.507900 -17.530100 1.624600 24.449600 -15.498300 13.144400 0.000000 0.000000 0.000000 -7.125000 0.000000 0.000000 -1.982200 15.597900 -1.377100 -0.000000 0.000000 0.000000 -2.018100 0.289700 13.165800 -12.824900 -21.030100 -2.390100 -8.360300 4.190800 28.025500 0.000000 0.000000 0.000000 7.125000 0.000000 -0.000000 24.062200 56.591500 -7.123500
-29.762888 16.322760 0.150756 174.047588 88.227336 178.911720 0.000000 0.000000 0.000000 -21.170293 -7.023513 -11.262743 3.661619 11.695940 34.664679 2.888675 7.290455 -35.271086 0.130136 2.323348 6.400105 0.000000 0.000000 0.000000 12.698064 7.877290 -8.403092 -2.528342 -9.889285 28.618958 -2.005818 -16.002520 -36.419825 -0.229359 -3.073556 8.484253 -3.684278 1.372908 -8.743565 0.719806 2.206272 2.092325 3.150812 0.910323 6.948876 9.262811 12.428466 -12.670972 -6.879142 18.904688 28.496789 -1.039171 8.848224 13.237792 0.000000 0.000000 0.000000 0.508450 -8.265064 -13.175164 10.113597 -16.915000 1.509622 23.256945 -11.348318 10.900110 0.000000 0.000000 0.000000 -7.125000 0.000000 0.000000 -2.724953 18.131207 -1.706112 0.000000 0.000000 0.000000 -2.096865 0.304292 13.658892 -12.956760 -21.223524 -2.437817 -8.480604 3.812207 28.005529 0.000000 0.000000 0.000000 7.125000 0.000000 0.000000 23.928848 56.597944 -7.084624
-29.761844 16.323063 0.162430 173.500093 88.041894 178.450628 0.000000 0.000000 0.000000 -21.152526 -7.209021 -11.322903 3.648759 11.677669 34.600994 2.865065 7.384219 -35.194099 0.120411 2.236836 6.160523 0.000000 0.000000 0.000000 12.758606 8.179088 -8.331990 -2.536585 -9.904123 28.666856 -2.074939 -16.166473 -36.917390 -0.264359 -3.307272 9.135365 -3.645116 1.405886 -8.850655 0.694405 2.252029 2.103462 3.112707 0.932819 7.020847 9.651797 12.861176 -12.532010 -6.951736 19.483123 28.419358 -1.018603 9.134053 13.289693 0.000000 0.000000 0.000000 0.473668 -8.123579 -13.236340 9.753749 -16.353445 1.404859 22.090795 -7.254680 8.371973 0.000000 0.000000 0.000000 -7.125000 0.000000 0.000000 -3.473182 20.955647 -1.984255 0.000000 0.000000 0.000000 -2.165121 0.317543 14.129189 -13.086518 -21.413757 -2.484850 -8.614971 3.446180 27.998248 0.000000 0.000000 0.000000 7.125000 0.000000 0.000000 23.790340 56.618822 -7.052440
-29.760566 16.324394 0.174945 170.597140 87.847991 175.592942 0.000000 0.000000 0.000000 -21.236989 -7.286082 -11.340105 3.635339 11.658604 34.534691 2.845147 7.375379 -35.082848 0.118867 2.222403 6.120635 0.000000 0.000000 0.000000 12.717759 8.440732 -8.232935 -2.546277 -9.921484 28.722934 -2.139059 -16.330659 -37.378636 -0.285288 -3.433008 9.486798 -3.673874 1.451579 -8.902632 0.615108 2.324243 2.121142 3.057960 0.967329 7.066221 10.072195 13.256863 -12.303065 -7.064903 19.999434 28.221887 -1.035805 9.396229 13.280640 0.000000 0.000000 0.000000 0.500403 -7.968819 -14.081610 9.641274 -16.176317 1.373438 21.114943 -3.565570 3.805959 0.000000 0.000000 0.000000 -7.125000 0.000000 0.000000 -4.260724 25.870271 -1.897182 0.000000 0.000000 0.000000 -2.157932 0.321164 14.435834 -13.201177 -21.581086 -2.526975 -8.850307 3.170370 28.082072 0.000000 0.000000 0.000000 7.125000 0.000000 0.000000 23.614810 56.743334 -7.068310
-29.758610 16.325595 0.187577 167.813987 87.670144 172.845810 0.000000 0.000000 0.000000 -21.320801 -7.343037 -11.345313 3.622856 11.640853 34.473011 2.829787 7.345547 -34.984997 0.119445 2.227452 6.134657 0.000000 0.000000 0.000000 12.679738 8.706543 -8.121665 -2.555449 -9.937921 28.776043 -2.203725 -16.484988 -37.832120 -0.306022 -3.555762 9.830079 -3.712619 1.496622 -8.945611 0.546697 2.395611 2.135034 3.019751 1.001070 7.101620 10.492203 13.646366 -12.034625 -7.207617 20.519014 28.002370 -1.065845 9.659083 13.260427 0.000000 0.000000 0.000000 0.525066 -7.871992 -14.543456 9.543773 -16.022720 1.346262 18.767957 -0.192758 -2.260520 0.000000 0.000000 0.000000 -7.125000 0.000000 0.000000 -6.798239 32.092235 -1.339271 0.000000 0.000000 0.000000 -2.161863 0.327142 14.724483 -13.309299 -21.738713 -2.566782 -9.035835 2.877046 28.090852 0.000000 0.000000 0.000000 7.125000 0.000000 0.000000 23.436689 56.789194 -7.038058
-29.754563 16.326394 0.200572 165.400983 87.541905 170.440262 0.000000 0.000000 0.000000 -21.402602 -7.337871 -11.313466 3.613270 11.627167 34.425613 2.828509 7.250859 -34.928546 0.126581 2.292689 6.315246 0.000000 0.000000 0.000000 12.650448 8.985228 -7.972657 -2.563011 -9.951501 28.819979 -2.270081 -16.608861 -38.261625 -0.326153 -3.669303 10.148173 -3.782224 1.539652 -8.960789 0.511921 2.464364 2.137217 3.032639 1.032437 7.106200 10.911003 14.016757 -11.644156 -7.441622 21.048692 27.714737 -1.135557 9.924029 13.205733 0.000000 0.000000 0.000000 0.543333 -7.954166 -13.820621 9.492541 -15.941825 1.332203 12.184521 2.202778 -12.963049 0.000000 0.000000 0.000000 -7.125000 0.000000 0.000000 -14.742723 42.353543 0.673412 0.000000 0.000000 0.000000 -2.200153 0.340403 14.957529 -13.397224 -21.866366 -2.599428 -9.067469 2.529608 27.867765 0.000000 0.000000 0.000000 7.125000 0.000000 0.000000 23.250561 56.592042 -6.865297
-29.750223 16.326607 0.213468 163.889993 87.435034 168.927548 0.000000 0.000000 0.000000 -21.446392 -7.360090 -11.260974 3.604876 11.615179 34.384037 2.827720 7.187794 -34.891257 0.132135 2.343083 6.454758 0.000000 0.000000 0.000000 12.665594 9.252683 -7.822163 -2.570281 -9.964534 28.862137 -2.340696 -16.689390 -38.673766 -0.352104 -3.809876 10.542660 -3.811983 1.576666 -8.965126 0.494842 2.518604 2.134264 3.039159 1.058316 7.100935 11.321073 14.383047 -11.232827 -7.686721 21.586321 27.436930 -1.206792 10.191963 13.155396 0.000000 0.000000 0.000000 0.565662 -8.066145 -12.801320 9.472640 -15.910426 1.326738 7.379017 2.355703 -14.630601 0.000000 0.000000 0.000000 -7.125000 0.000000 0.000000 -19.054153 43.911927 -0.122238 0.000000 0.000000 0.000000 -2.242897 0.340635 15.149263 -13.478976 -21.984937 -2.629905 -8.943701 2.238111 27.688353 0.000000 0.000000 0.000000 7.125000 0.000000 0.000000 23.249173 56.403426 -6.755255
-29.745376 16.325808 0.226196 163.936326 87.365057 168.956306 0.000000 0.000000 0.000000 -21.424557 -7.429588 -11.172836 3.598538 11.606126 34.352510 2.827773 7.179327 -34.887050 0.134958 2.367846 6.523351 0.000000 0.000000 0.000000 12.757459 9.500746 -7.669107 -2.577044 -9.976623 28.901226 -2.418662 -16.695088 -39.055927 -0.388105 -3.997123 11.069036 -3.772946 1.603294 -8.950747 0.508315 2.547788 2.122441 3.034686 1.074719 7.078675 11.716068 14.742255 -10.785481 -7.950974 22.137674 27.176084 -1.280657 10.465057 13.112578 0.000000 0.000000 0.000000 0.595006 -8.229586 -11.270173 9.506830 -15.964480 1.336111 5.643103 -1.363230 -0.699301 0.000000 0.000000 0.000000 -7.125000 0.000000 0.000000 -17.093128 30.444748 -5.766461 0.000000 0.000000 0.000000 -2.293330 0.318375 15.269674 -13.550072 -22.087826 -2.656640 -8.551635 2.043196 27.584345 0.000000 0.000000 0.000000 7.125000 0.000000 0.000000 23.566735 56.229547 -6.753498
-29.742119 16.324827 0.238690 164.878030 87.298282 169.891895 0.000000 0.000000 0.000000 -21.356677 -7.534245 -11.116263 3.593581 11.599026 34.327806 2.821263 7.263261 -34.896229 0.127832 2.300833 6.337943 0.000000 0.000000 0.000000 12.889770 9.717141 -7.553788 -2.583703 -9.988504 28.939665 -2.491992 -16.684041 -39.399439 -0.425746 -4.184447 11.596689 -3.688126 1.642865 -8.923946 0.530566 2.587676 2.101139 3.014378 1.098674 7.039850 12.051060 15.071070 -10.360507 -8.160406 22.638712 26.926308 -1.335172 10.716196 13.059760 0.000000 0.000000 0.000000 0.552106 -7.802415 -13.028595 9.389005 -15.777502 1.304569 10.182660 -3.106927 7.043382 0.000000 0.000000 0.000000 -7.125000 0.000000 0.000000 -12.146097 22.693446 -6.543250 0.000000 0.000000 0.000000 -2.342383 0.285905 15.305651 -13.619840 -22.188632 -2.682931 -8.083678 1.911515 27.673449 0.000000 0.000000 0.000000 7.125000 0.000000 0.000000 24.092201 56.215497 -6.911881
-29.740521 16.323655 0.250939 166.755284 87.234855 171.775007 0.000000 0.000000 0.000000 -21.240687 -7.675638 -11.092671 3.590066 11.593967 34.310231 2.807896 7.443744 -34.919395 0.110311 2.137925 5.887135 0.000000 0.000000 0.000000 13.064342 9.900447 -7.477899 -2.590254 -10.000166 28.977423 -2.560478 -16.655496 -39.702569 -0.465102 -4.371853 12.125675 -3.555467 1.695961 -8.884164 0.561986 2.638748 2.069931 2.977525 1.130521 6.983719 12.323355 15.368129 -9.958908 -8.312557 23.087175 26.688096 -1.369468 10.944395 12.996493 0.000000 0.000000 0.000000 0.433719 -6.758129 -18.224194 9.112343 -15.338678 1.230278 21.279280 -2.786755 8.319755 0.000000 0.000000 0.000000 -7.125000 0.000000 0.000000 -4.079072 20.914502 -2.234194 0.000000 0.000000 0.000000 -2.389993 0.242768 15.253408 -13.688220 -22.287261 -2.708760 -7.536425 1.845904 27.964330 0.000000 0.000000 0.000000 7.125000 0.000000 0.000000 24.834902 56.368446 -7.237592
-29.738370 16.322158 0.262634 168.180684 87.155021 173.212125 0.000000 0.000000 0.000000 -21.138142 -7.754658 -11.106907 3.587430 11.590144 34.297019 2.784795 7.610423 -34.883638 0.093148 1.961507 5.399542 0.000000 0.000000 0.000000 13.207661 10.044263 -7.421380 -2.596707 -10.011634 29.014465 -2.614413 -16.682358 -39.977084 -0.487432 -4.476375 12.420987 -3.433973 1.769045 -8.887516 0.572442 2.721495 2.063497 2.931980 1.176236 6.977298 12.555673 15.607371 -9.631890 -8.442831 23.438693 26.450471 -1.404676 11.125066 12.929579 0.000000 0.000000 0.000000 0.401698 -6.325278 -20.533696 8.978691 -15.126463 1.194596 25.284314 -2.862671 8.997064 0.000000 0.000000 0.000000 -7.125000 0.000000 0.000000 -1.172189 20.049323 -0.701332 0.000000 0.000000 0.000000 -2.419275 0.189669 15.203671 -13.763859 -22.396080 -2.737519 -7.178313 1.642621 28.145276 0.000000 0.000000 0.000000 7.125000 0.000000 0.000000 25.315442 56.459282 -7.445781
-29.735867 16.320454 0.273977 169.318753 87.064753 174.365638 0.000000 0.000000 0.000000 -21.044146 -7.794013 -11.145197 3.585353 11.587109 34.286581 2.755505 7.768326 -34.810412 0.076213 1.776497 4.888556 0.000000 0.000000 0.000000 13.331107 10.162970 -7.377178 -2.603097 -10.022977 29.051051 -2.659094 -16.744454 -40.233402 -0.498935 -4.528193 12.567706 -3.319581 1.854839 -8.918298 0.569566 2.824384 2.072817 2.880909 1.230769 7.002488 12.762571 15.809848 -9.352299 -8.559194 23.728562 26.213218 -1.440464 11.275512 12.860347 0.000000 0.000000 0.000000 0.424598 -6.281235 -21.007935 8.935981 -15.058349 1.183466 24.779825 -3.190459 9.293431 0.000000 0.000000 0.000000 -7.125000 0.000000 0.000000 -1.546628 19.765205 -0.933845 0.000000 0.000000 0.000000 -2.436903 0.130236 15.155528 -13.844115 -22.511378 -2.768141 -6.940474 1.351793 28.256313 0.000000 0.000000 0.000000 7.125000 0.000000 0.000000 25.629276 56.510621 -7.579239
